<?xml version="1.0" encoding="UTF-8"?>
<svg id="Layer_1" data-name="Layer 1" xmlns="http://www.w3.org/2000/svg" viewBox="0 0 875 680">
  <defs>
    <style>
      .cls-1 {
        fill: #0a30a5;
        stroke: #fff;
        stroke-miterlimit: 10;
        stroke-width: 15px;
      }
    </style>
  </defs>
  <path class="cls-1" d="m85.04,108.81c70.29-25.29,142.29,81.44,281.82,76.99C545.03,180.13,653.38-1.13,724.49,21.71c8.59,2.76,20.23,22.36,43.18,61.44,33.11,56.4,49.66,84.6,50.1,98.38,2.18,68.46-104.99,85.09-93.94,136.88,9.8,45.92,97.8,50.39,112.73,111.21,2.53,10.32,9.35,38.08-12.53,59.88-48.95,48.78-172.42-1.21-274.45,46.09-83.24,38.59-54.93,96.84-126.36,116.46-83.06,22.81-223.88-27.81-244.24-89.83-21.19-64.54,94.86-120.77,56.36-162.54-15.83-17.18-38.92-11.45-88.32-38.54,0,0-48.34-26.51-77.74-64.47-49.09-63.39-45.61-165.77,15.76-187.85Z"/>
</svg>