<?xml version="1.0" encoding="UTF-8"?>
<svg id="Layer_1" data-name="Layer 1" xmlns="http://www.w3.org/2000/svg" viewBox="0 0 875 680">
  <defs>
    <style>
      .cls-1 {
        fill: #0a30a5;
        stroke: #fff;
        stroke-miterlimit: 10;
        stroke-width: 15px;
      }
    </style>
  </defs>
  <path class="cls-1" d="m129.98,139.85c53-27.31,78.22,3.11,158.72-24.47,97.57-33.42,102.49-92.49,168.36-93.68,64.5-1.17,121.3,54.35,146.56,93.59,28.02,43.53,14.37,55.64,34.76,94.15,42.26,79.8,158.47,49.55,194.64,114.99,38.02,68.8-36.73,199.41-108.21,206.99-29.32,3.11-34.25-17-82.08-27.24-64.41-13.78-136.52,9.64-190.42,44.11-57.75,36.93-38.11,92.68-87.67,111.45-57.63,21.83-155.33-26.62-169.46-85.97-15.95-67.01,62.83-121.44,39.11-155.56-26.46-38.05-133.59,22.7-181.71-19.64-54.64-48.07-18.74-209.18,77.43-258.73Z"/>
</svg>