<?xml version="1.0" encoding="UTF-8"?>
<svg id="Layer_1" data-name="Layer 1" xmlns="http://www.w3.org/2000/svg" viewBox="0 0 875 680">
  <defs>
    <style>
      .cls-1 {
        fill: #0a30a5;
        stroke: #fff;
        stroke-miterlimit: 10;
        stroke-width: 15px;
      }
    </style>
  </defs>
  <path class="cls-1" d="m133.2,61.89c63.25-29.15,99.29,30.88,217.73,5.76,38.91-8.25,61.91-20.43,135.53-34.04,76.61-14.16,98.3-9.58,113.41,2.08,29.73,22.95,13.17,57.34,34.25,100.43,41.64,85.12,156.14,52.85,191.78,122.66,37.46,73.39-36.19,212.7-106.62,220.79-28.89,3.32-33.75-18.14-80.87-29.05-63.46-14.7-134.51,10.28-187.62,47.05-56.9,39.39-37.55,98.86-86.39,118.88-56.78,23.28-153.05-28.39-166.97-91.7-15.72-71.48,61.91-129.53,38.53-165.93-26.07-40.59-131.62,24.21-179.04-20.95C2.47,286.02,40.71,104.52,133.2,61.89Z"/>
</svg>