<?xml version="1.0" encoding="UTF-8"?>
<svg id="Layer_1" data-name="Layer 1" xmlns="http://www.w3.org/2000/svg" viewBox="0 0 875 680">
  <defs>
    <style>
      .cls-1 {
        fill: #0a30a5;
        stroke: #fff;
        stroke-miterlimit: 10;
        stroke-width: 15px;
      }
    </style>
  </defs>
  <path class="cls-1" d="m195.92,163.47c54.25-47.2,90.94-79.12,153.81-95.69,45.76-12.06,123.34.76,278.52,26.4,66.08,10.92,99.16,18.16,126.39,43.06,33.12,30.28,37.69,68.49,41.01,100.56,29.15,281.62,22.48,297.37,5.13,314.79-52.99,53.18-159.9,76.04-224.63,47.11-51.09-22.84-45.09-64.17-87.15-73.28-65.9-14.26-102.61,82.43-216.18,100.5-63.48,10.1-139.36-6.23-186.13-47.7-71.07-63.02-48.69-160.84-38.68-204.57,23.56-102.97,98.37-168.05,147.92-211.16Z"/>
</svg>