<?xml version="1.0" encoding="UTF-8"?>
<svg id="Layer_1" data-name="Layer 1" xmlns="http://www.w3.org/2000/svg" viewBox="0 0 875 680">
  <defs>
    <style>
      .cls-1 {
        fill: #0a30a5;
        stroke: #fff;
        stroke-miterlimit: 10;
        stroke-width: 15px;
      }
    </style>
  </defs>
  <path class="cls-1" d="m339.8,113.27c-89.73-43.34-120.38-69-171.71-61.91-38.81,5.36-68.56,26.56-83.65,41.28-112.15,109.37-17.36,448.65,154.1,503.56,6.98,2.23,6.97,1.72,189.32,20.64,129.44,13.43,131.52,13.9,140.89,12.38,132.41-21.45,242.53-201.19,228.94-354.97-2.4-27.17-8.55-96.81-66.04-144.46-34.82-28.87-95.82-57.49-132.08-37.15-33,18.51-14.43,60.03-44.96,80.31-37.65,25.01-109.81-8.96-214.81-59.68Z"/>
</svg>