<?xml version="1.0" encoding="UTF-8"?>
<svg id="Layer_1" data-name="Layer 1" xmlns="http://www.w3.org/2000/svg" viewBox="0 0 875 680">
  <defs>
    <style>
      .cls-1 {
        fill: #0a30a5;
        stroke: #fff;
        stroke-miterlimit: 10;
        stroke-width: 15px;
      }
    </style>
  </defs>
  <path class="cls-1" d="m335.53,127.17c-71.68,11.66-114.78-57.4-187.01-48.1-71,9.14-131.32,89-104.77,144.57,21.06,44.09,78.81,35.22,132.23,88.43,65.36,65.11,54.03,153.21,49.26,190.3-7.78,60.5-31.68,83.52-5.18,109.84,29.98,29.79,104.32,43.73,144.25,26.8,37.72-15.99,18.22-48.27,56.1-77.71,41.18-32.01,99.55-21.31,164.46-33.27,151.08-27.83,275.2-166.88,249.34-275.79-11.77-49.59-55.05-94.66-71.93-112.24-24.56-25.58-46.98-48.93-89.44-69.11-10.02-4.77-121.62-56.38-212.37-29.48-74.39,22.05-63.74,75.81-124.95,85.76Z"/>
</svg>